<?xml version="1.0" encoding="utf-8"?>
<!-- Generator: Adobe Illustrator 24.2.0, SVG Export Plug-In . SVG Version: 6.00 Build 0)  -->
<svg version="1.1" id="Capa_1" xmlns="http://www.w3.org/2000/svg" xmlns:xlink="http://www.w3.org/1999/xlink" x="0px" y="0px"
	 viewBox="0 0 562 573.3" style="enable-background:new 0 0 562 573.3;" xml:space="preserve">
<g>
	<defs>
		<path id="SVGID_1_" d="M206.8,206.1c28.3,37.2-30.2,98.2-75.7,41.1c-54.1-68-112.9-65.2-120-7.1c-7,57.8,84.3,56.6,106,100
			c19.6,39.4-63.2,69.6-44.5,150.9c23.6,103.6,154.1,90.8,185.3,29.8c69.8-136.4,141.7-45.3,168.2-17
			c55.9,59.9,193.6-13.9,90.8-109.2c-51.1-47.2-42.2-95.2-2.7-122.6c64.1-44.6,6-118.4-39.4-95.7c-12.1,6-22,25.5-45.3,31.9
			c-20.5,5.6-43.8-6.5-46.8-25.3c-7.6-47.2,63-82.5,56.7-123.6c-9.5-60.7-98.3-71.1-104.9-8.8c-7.3,68.1-35.7,96.7-81.2,73.9
			c-34.1-17-61.8-8.5-72,20.6C171.3,173.4,195.5,191.3,206.8,206.1z"/>
	</defs>
	<clipPath id="SVGID_2_">
		<use xlink:href="#SVGID_1_"  style="overflow:visible;"/>
	</clipPath>
	<g style="clip-path:url(#SVGID_2_);">
		
			<image style="overflow:visible;" width="640" height="960" xlink:href="WhatsApp Image 2020-08-19 at 16.51.30.jpeg"  transform="matrix(0.861 0 0 0.7132 10.9663 8.7574)">
		</image>
	</g>
</g>
</svg>
