<?xml version="1.0" encoding="utf-8"?>
<!-- Generator: Adobe Illustrator 24.2.0, SVG Export Plug-In . SVG Version: 6.00 Build 0)  -->
<svg version="1.1" id="Capa_1" xmlns="http://www.w3.org/2000/svg" xmlns:xlink="http://www.w3.org/1999/xlink" x="0px" y="0px"
	 viewBox="0 0 512 512" style="enable-background:new 0 0 512 512;" xml:space="preserve">
<style type="text/css">
	.st0{fill:#1DB7EA;}
	.st1{fill:#0C89AA;}
</style>
<path class="st0" d="M189.9,201.3c20.6,27.1-22,71.5-55.1,29.9c-39.4-49.5-82.2-47.5-87.4-5.2c-5.1,42.1,61.4,41.2,77.2,72.8
	c14.3,28.7-46,50.7-32.4,109.9c17.2,75.4,112.2,66.1,134.9,21.7c50.8-99.3,103.2-33,122.5-12.4c40.7,43.6,141-10.1,66.1-79.5
	c-37.2-34.4-30.7-69.3-2-89.3c46.7-32.5,4.4-86.2-28.7-69.7c-8.8,4.4-16,18.6-33,23.2c-14.9,4.1-31.9-4.7-34.1-18.4
	c-5.5-34.4,45.9-60.1,41.3-90c-6.9-44.2-71.6-51.8-76.4-6.4c-5.3,49.6-26,70.4-59.1,53.8c-24.8-12.4-45-6.2-52.4,15
	C164.1,177.5,181.7,190.5,189.9,201.3z"/>
<path class="st1" d="M413.7,249.3c46.7-32.5,4.4-86.2-28.7-69.7c-8.8,4.4-16,18.6-33,23.2c-2.9,0.8-5.9,1-8.9,0.8
	c-5.9,10.8-13,22-28.6,32.4c-22.7,15.1-58.5,3.4-58.5-37.8s-42.7-45.4-53-18.6c-3.4,8.8-4.5,16.3-13.4,21.2c0.1,0.2,0.3,0.3,0.4,0.5
	c20.6,27.1-22,71.5-55.1,29.9c-7.5-9.5-15.2-17-22.7-22.8c-29.1,7.5-41.4,34.5-33.7,58.1c17.9,8.9,38.3,16.6,46.1,32.3
	c14.3,28.7-46,50.7-32.4,109.9c4,17.4,12.1,30.2,22.5,39.2c48.4,25.9,86.3-36.3,108.2-84.6c20.6-45.4,81.2-37.2,103.9-2.8
	c22.7,34.4,69,27.9,71.6-8.9c0.5-7.5,3.1-15.6,7-23.9C380.2,297,388,267.2,413.7,249.3z"/>
<g>
	<path class="st1" d="M31.9,0c-28.4,1-45.1,36.5-18.6,68.1c24.3,28.9,63,42.8,76.4,22.7C104,69.4,76.3-1.6,31.9,0z"/>
	<path class="st1" d="M184.3,16.5c-21.2,5.2-25.5,30.1-4.7,45.9c19.7,15,31.7,5.2,32.6-9.1C212.8,45,205.4,11.3,184.3,16.5z"/>
	<path class="st1" d="M441,62.6c-27.9,4.4-36.2,64-10.4,59.5C456.3,117.6,487,55.4,441,62.6z"/>
	<path class="st1" d="M510,495.2c13.4-28.8-43.4-54.4-54.2-21.8C446.9,500.2,492.7,532.3,510,495.2z"/>
</g>
</svg>
